<?xml version="1.0" encoding="UTF-8" standalone="no"?>
<!-- Created with Inkscape (http://www.inkscape.org/) -->

<svg
   version="1.1"
   id="svg55"
   width="1024"
   height="1024"
   viewBox="0 0 1024 1024"
   sodipodi:docname="KGDB_logo_with_letters.svg"
   inkscape:version="1.2.2 (b0a8486541, 2022-12-01)"
   xmlns:inkscape="http://www.inkscape.org/namespaces/inkscape"
   xmlns:sodipodi="http://sodipodi.sourceforge.net/DTD/sodipodi-0.dtd"
   xmlns="http://www.w3.org/2000/svg"
   xmlns:svg="http://www.w3.org/2000/svg">
  <defs
     id="defs59" />
  <sodipodi:namedview
     id="namedview57"
     pagecolor="#ffffff"
     bordercolor="#000000"
     borderopacity="0.25"
     inkscape:showpageshadow="2"
     inkscape:pageopacity="0"
     inkscape:pagecheckerboard="0"
     inkscape:deskcolor="#d1d1d1"
     showgrid="false"
     inkscape:zoom="0.75820629"
     inkscape:cx="834.86514"
     inkscape:cy="544.70664"
     inkscape:window-width="2560"
     inkscape:window-height="1304"
     inkscape:window-x="0"
     inkscape:window-y="32"
     inkscape:window-maximized="1"
     inkscape:current-layer="g241" />
  <g
     inkscape:groupmode="layer"
     inkscape:label="Image"
     id="g61">
    <g
       id="g241"
       transform="translate(-14.921675,1.8652093)">
      <circle
         style="fill:#ffffff"
         id="path4085"
         cx="519.40186"
         cy="510.52835"
         r="501.84232" />
      <text
         xml:space="preserve"
         style="font-size:291.831px;line-height:0.8;letter-spacing:0px;word-spacing:0px;fill:#327b82;fill-opacity:1;stroke-width:0.875494"
         x="741.62537"
         y="609.71497"
         id="text529-3"><tspan
           sodipodi:role="line"
           x="741.62537"
           y="609.71497"
           id="tspan585-5"
           style="font-style:normal;font-variant:normal;font-weight:bold;font-stretch:normal;font-size:291.831px;font-family:sans-serif;-inkscape-font-specification:'sans-serif Bold';writing-mode:lr-tb;direction:ltr;baseline-shift:baseline;fill:#327b82;fill-opacity:1;stroke-width:0.875494">d</tspan><tspan
           sodipodi:role="line"
           x="741.62537"
           y="843.17975"
           id="tspan587-3"
           style="font-style:normal;font-variant:normal;font-weight:bold;font-stretch:normal;font-size:291.831px;font-family:sans-serif;-inkscape-font-specification:'sans-serif Bold';writing-mode:lr-tb;direction:ltr;baseline-shift:baseline;fill:#327b82;fill-opacity:1;stroke-width:0.875494">b</tspan></text>
      <g
         id="g429"
         transform="matrix(0.78444047,0,0,0.78444047,-58.277882,99.832464)">
        <path
           style="fill:#489c9e;stroke-width:2.48205"
           d="m 494.76288,235.87365 c -9.40686,-4.12744 -13.2262,-10.47321 -13.2262,-21.97509 0,-17.85623 18.35776,-28.83034 34.37355,-20.54825 27.80103,14.37647 7.54286,55.1118 -21.14735,42.52334 z"
           id="path373" />
        <path
           style="fill:#489c9e;stroke-width:2.48205"
           d="m 655.47039,280.19528 c -6.42487,-5.40617 -7.63659,-8.18178 -7.63659,-17.49285 0,-22.0351 24.17097,-31.71779 39.90366,-15.98507 21.70684,21.7068 -8.72854,53.28428 -32.26707,33.47792 z"
           id="path371" />
        <path
           style="fill:#489c9e;stroke-width:2.48205"
           d="m 631.27544,377.32056 c -27.18451,-11.82506 -10.21959,-52.78775 18.00454,-43.47295 20.80204,6.8653 22.20449,35.20178 2.15685,43.57825 -10.09383,4.21746 -10.22547,4.21677 -20.16139,-0.10531 z"
           id="path369" />
        <path
           style="fill:#489c9e;stroke-width:2.48205"
           d="m 357.24345,415.87836 c -4.92494,-4.92492 -7.25522,-9.74772 -7.25522,-15.01553 0,-25.45981 27.43883,-36.00067 43.62856,-16.76028 19.81391,23.54748 -14.56673,53.58246 -36.37334,31.77581 z"
           id="path367" />
        <path
           style="fill:#489c9e;stroke-width:2.48205"
           d="m 365.56764,646.71343 c -19.78673,-12.38093 -10.01896,-44.8725 13.48978,-44.8725 9.45426,0 22.83656,10.92503 23.32852,19.04495 1.4676,24.22249 -17.79188,37.73277 -36.8183,25.82755 z"
           id="path365" />
        <path
           style="fill:#489c9e;stroke-width:2.48205"
           d="m 633.13198,684.76887 c -8.71125,-7.33004 -10.19312,-18.66155 -4.00534,-30.62745 8.69789,-16.8198 39.90819,-12.45438 44.59975,6.23825 5.93524,23.64793 -21.72537,40.26645 -40.59441,24.3892 z"
           id="path363" />
        <path
           style="fill:#489c9e;stroke-width:2.48205"
           d="m 660.05312,785.70329 c -20.78715,-20.7871 3.48862,-52.3595 29.79796,-38.75444 16.16008,8.3567 13.84643,35.17972 -3.6656,42.49673 -12.36366,5.16585 -18.03662,4.35344 -26.13236,-3.74229 z"
           id="path361" />
        <path
           style="fill:#489c9e;stroke-width:2.48205"
           d="m 502.27915,832.69217 c -17.47023,-7.05011 -18.06326,-34.57407 -0.93578,-43.43103 21.08726,-10.90465 41.82778,6.03445 35.05742,28.63192 -4.30804,14.37893 -19.17957,20.82897 -34.12164,14.79911 z"
           id="path359" />
        <path
           style="fill:#489c9e;stroke-width:2.48205"
           d="M 518.53163,964.33363 C 232.12714,903.90885 122.66478,418.63687 339.6265,171.20587 451.63543,43.466879 630.31276,20.143439 734.84227,119.61678 c 88.96358,84.66039 88.06735,196.96644 -2.56081,320.89114 -43.12404,58.96768 -42.55463,72.57597 5.9198,141.47665 140.74862,200.05755 8.37548,430.46153 -219.66963,382.34906 z m 108.20478,-50.8249 C 738.56658,883.89689 782.82334,771.34949 727.3326,657.68698 c -13.13384,-26.9022 -52.60321,-88.1719 -62.98821,-97.77879 l -6.42444,-5.94306 -16.83279,15.70178 c -77.94674,72.70951 -79.86389,74.73237 -77.27655,81.53755 3.15154,8.28925 0.82577,20.4308 -5.4394,28.39566 -2.7184,3.45589 -3.95997,6.89068 -2.75903,7.63292 1.20093,0.7422 11.38691,21.3588 22.63552,45.81463 l 20.452,44.46517 9.84952,1.57499 c 43.81543,7.00637 36.75467,70.98536 -7.82994,70.94848 -27.52582,-0.0223 -44.24292,-30.37861 -29.78699,-54.08888 l 4.98745,-8.18032 -18.19511,-36.49653 c -10.0073,-20.0731 -20.06522,-41.24344 -22.35096,-47.04522 -3.16815,-8.04165 -5.4879,-10.55773 -9.76055,-10.58671 -3.0826,-0.0199 -7.18718,-1.03968 -9.12133,-2.26393 -2.52734,-1.59973 -7.41493,1.16397 -17.37432,9.82432 -7.62173,6.62762 -16.33093,14.06869 -19.35373,16.5357 -5.00595,4.08546 -5.24926,5.37967 -2.72869,14.51371 9.29141,33.67042 -21.61946,58.94459 -52.44013,42.87749 -37.55858,-19.57967 -23.71709,-69.93229 18.88755,-68.70933 l 15.30982,0.43946 20.05935,-18.11258 c 19.58932,-17.68813 20.05937,-18.38159 20.05937,-29.59298 0,-8.0734 1.79312,-14.11921 6.04221,-20.37227 5.81302,-8.55466 5.90784,-9.35307 2.50003,-21.05304 -1.94819,-6.68865 -5.54584,-24.11885 -7.99477,-38.73374 -4.28596,-25.57801 -4.77435,-26.78912 -13.04874,-32.35921 -4.72786,-3.18268 -10.82997,-9.23023 -13.56023,-13.43907 l -4.96407,-7.65237 -35.84586,-1.10612 -35.84584,-1.10616 -6.95803,7.9248 c -18.68922,21.28583 -52.83073,12.65333 -57.95348,-14.65321 -6.94286,-37.00867 42.37786,-57.16164 61.32052,-25.05624 l 5.03468,8.53314 h 34.30107 34.30104 l 5.10787,-8.26474 c 2.80936,-4.5456 9.0105,-10.36641 13.78035,-12.93513 9.23741,-4.97469 8.76318,-3.5287 12.58326,-38.36923 0.82325,-7.5082 3.21524,-20.5287 5.31554,-28.93444 3.7394,-14.96555 3.701,-15.44242 -1.84692,-22.94639 -3.3378,-4.51463 -5.86499,-11.77312 -6.1508,-17.66609 -0.44207,-9.1158 -2.34612,-11.74405 -21.47081,-29.63728 l -20.98572,-19.63441 -10.50265,2.66587 c -36.17611,9.18249 -62.73119,-37.73185 -35.65447,-62.99008 30.6925,-28.63115 76.62171,-2.25165 64.20333,36.87523 -2.55215,8.04103 36.77055,43.22786 45.99773,41.15983 2.37113,-0.53144 9.06143,-11.85471 16.11699,-27.27777 6.63466,-14.50305 17.18213,-35.50113 23.43886,-46.66242 l 11.37587,-20.29324 -6.03594,-7.01721 c -27.25452,-31.68524 23.85093,-77.34913 54.53446,-48.72781 22.2327,20.73846 8.99084,62.3946 -19.84918,62.44138 -4.96712,0.008 -8.62988,6.06615 -27.87107,46.09792 l -22.15243,46.08864 5.41333,7.32194 c 4.99476,6.75576 7.30564,21.81481 4.34676,28.32618 -1.13131,2.48958 31.59568,34.5946 74.24906,72.83795 l 22.82017,20.46072 16.84884,-21.82886 C 777.60056,311.57159 781.08895,195.54504 679.34257,135.50341 528.25024,46.342231 327.51672,181.39442 283.18418,402.03619 227.32643,680.03865 420.77812,968.04509 626.73641,913.50873 Z M 595.56669,577.43487 645.35176,529.4494 v -14.15119 -14.1512 l -14.03383,-11.79937 c -7.71863,-6.48966 -31.75124,-28.78962 -53.40584,-49.55543 -50.0041,-47.9518 -52.97004,-47.1332 -58.24139,16.07464 l -1.59177,19.08686 10.21279,11.60233 c 16.38314,18.61227 15.74314,39.88289 -1.70291,56.59726 -12.19392,11.68252 3.75958,87.81939 17.37504,82.92104 0.9998,-0.35967 24.22106,-22.24745 51.60284,-48.63947 z"
           id="path357" />
        <path
           style="fill:#327b82;stroke-width:2.48205"
           d="m 489.63419,233.18569 c -12.74496,-8.92694 -8.90612,-33.75965 6.19419,-40.06896 23.72642,-9.91351 44.77146,19.77451 26.77488,37.77106 -7.21022,7.21027 -24.25917,8.39855 -32.96907,2.2979 z m 30.83478,-4.08438 c 12.81373,-12.03791 3.3518,-34.17517 -14.87632,-34.80471 -12.96436,-0.44777 -20.22008,6.95235 -20.22008,20.62259 0,18.01975 21.68427,26.78213 35.0964,14.18212 z"
           id="path307" />
        <path
           style="fill:#327b82;stroke-width:2.48205"
           d="m 570.89036,240.70317 c 0,-2.04769 1.08188,-3.72307 2.40417,-3.72307 1.32225,0 1.76124,1.67538 0.97547,3.72307 -0.7858,2.04769 -1.86764,3.72306 -2.40417,3.72306 -0.53649,0 -0.97547,-1.67537 -0.97547,-3.72306 z"
           id="path305" />
        <path
           style="fill:#327b82;stroke-width:2.48205"
           d="m 578.3365,244.42623 c -3.18173,-2.0562 -3.09151,-2.41154 0.62052,-2.44403 2.38897,-0.0199 4.34359,1.07891 4.34359,2.44403 0,3.02714 -0.27995,3.02714 -4.96411,0 z"
           id="path303" />
        <path
           style="fill:#327b82;stroke-width:2.48205"
           d="m 655.08902,279.36581 c -5.37141,-5.3714 -7.25522,-9.60998 -7.25522,-16.32423 0,-6.71425 1.88381,-10.95282 7.25522,-16.32422 19.66793,-19.66793 48.934,2.83107 36.06171,27.72332 -7.11425,13.75744 -24.8123,16.17456 -36.06171,4.92513 z m 26.06384,1.92544 c 13.19218,-6.01078 14.00883,-29.11902 1.26204,-35.71063 -13.11179,-6.78036 -25.47672,-3.35695 -29.90048,8.27839 -7.44643,19.5856 9.73629,36.04461 28.63844,27.43224 z"
           id="path301" />
        <path
           style="fill:#327b82;stroke-width:2.48205"
           d="m 633.67326,378.00722 c -9.4775,-2.52179 -15.624,-10.42226 -15.624,-20.08239 0,-30.73647 42.9902,-34.59042 46.41999,-4.16139 2.04429,18.13685 -12.04941,29.23198 -30.79599,24.24378 z m 22.96051,-8.12483 c 12.83731,-12.83726 3.56161,-33.62043 -15.00508,-33.62043 -11.48522,0 -21.09739,9.04676 -21.09739,19.85637 0,17.73786 23.26059,26.60598 36.10247,13.76406 z"
           id="path299" />
        <path
           style="fill:#327b82;stroke-width:2.48205"
           d="m 358.66032,417.5451 c -19.36565,-16.65762 -1.65528,-49.49401 22.41087,-41.55147 26.87118,8.8683 21.7868,47.13996 -6.2625,47.13996 -6.43242,0 -11.81827,-1.8639 -16.14837,-5.58849 z m 29.4649,-2.0378 c 9.30755,-7.32132 9.55962,-27.05485 0.42204,-33.04203 -12.49065,-8.18418 -28.34177,-4.2806 -33.5357,8.25867 -8.81938,21.29185 14.94302,39.07639 33.11366,24.78336 z"
           id="path297" />
        <path
           style="fill:#327b82;stroke-width:2.48205"
           d="m 368.31303,647.49188 c -13.3867,-6.49997 -16.94474,-21.1272 -8.50573,-34.96757 6.10365,-10.01026 18.28603,-12.96286 29.51856,-7.15429 27.55528,14.2494 6.89174,55.67102 -21.01283,42.12186 z m 26.35203,-5.9382 c 11.89626,-11.89624 0.88259,-37.23071 -16.18533,-37.23071 -17.12144,0 -26.87451,26.98016 -13.62999,37.7049 7.61382,6.16528 23.42736,5.91379 29.81532,-0.47419 z"
           id="path295" />
        <path
           style="fill:#327b82;stroke-width:2.48205"
           d="m 632.43986,683.62865 c -6.70687,-6.70688 -7.40718,-8.74965 -6.16766,-17.99096 3.22725,-24.06105 35.96197,-30.30219 45.03541,-8.58639 10.44153,24.99014 -19.78583,45.65929 -38.86775,26.57735 z m 33.38878,-2.5617 c 6.82506,-8.35076 5.71744,-23.18001 -2.19626,-29.40493 -17.18628,-13.51876 -39.97452,2.12774 -34.55398,23.72491 3.28055,13.07071 27.63358,16.83462 36.75024,5.68002 z"
           id="path293" />
        <path
           style="fill:#327b82;stroke-width:2.48205"
           d="m 460.29317,717.11916 c -4.62658,-3.70666 -4.59614,-3.75247 0.76664,-1.15369 3.07153,1.48847 5.58459,3.22547 5.58459,3.86001 0,1.8993 -1.28721,1.35081 -6.35123,-2.70632 z"
           id="path291" />
        <path
           style="fill:#327b82;stroke-width:2.48205"
           d="m 666.2746,790.56408 c -14.76288,-5.97497 -17.60817,-30.64485 -4.80461,-41.65801 19.89101,-17.10953 48.43593,8.41433 35.80497,32.01552 -4.71544,8.81087 -20.73997,13.7952 -31.00036,9.64249 z m 23.754,-7.36435 c 7.60683,-5.37631 9.63505,-20.03843 3.96831,-28.687 -7.71298,-11.77147 -30.07845,-10.06466 -35.91295,2.74065 -10.62211,23.31303 10.91726,40.80791 31.94464,25.94635 z"
           id="path289" />
        <path
           style="fill:#327b82;stroke-width:2.48205"
           d="m 500.83495,831.28429 c -17.37733,-9.43033 -16.17071,-34.70053 2.01983,-42.30102 17.66407,-7.38051 33.28693,2.73919 33.28693,21.56158 0,19.74054 -17.83861,30.21905 -35.30676,20.73944 z M 523.55396,829.04 c 11.45646,-5.92437 14.29133,-24.44971 5.14162,-33.59943 -12.05281,-12.05281 -37.2307,-2.90179 -37.2307,13.53164 0,17.79251 16.51573,28.12106 32.08908,20.06779 z"
           id="path287" />
        <path
           style="fill:#327b82;stroke-width:2.48205"
           d="M 540.5032,919.45927 C 342.59636,886.14152 214.33191,585.20823 295.69738,345.09738 c 65.6858,-193.8399 255.5189,-296.540319 387.88088,-209.8451 99.11219,64.91708 97.1534,176.48224 -5.44356,310.04221 -15.59964,20.3075 -19.65717,27.25908 -18.83354,32.26661 0.75162,4.56981 0.39248,5.38526 -1.26445,2.87109 -2.5414,-3.85622 -1.70452,-11.52371 1.74387,-15.97756 1.21337,-1.56712 8.97299,-11.45154 17.24363,-21.96536 C 812.27832,270.55157 751.02439,94.063865 561.30016,109.05971 265.21363,132.46243 167.67467,627.52823 414.99367,851.64829 599.80165,1019.121 841.6744,851.24998 719.24389,640.48444 c -25.15812,-43.31003 -56.60915,-87.0798 -61.34552,-85.37346 -12.27922,4.4237 -96.33092,90.19357 -94.11036,96.03409 3.17222,8.34361 0.86369,20.47074 -5.4168,28.45505 -2.7184,3.45589 -3.95997,6.89068 -2.75903,7.63292 1.20093,0.7422 11.44419,21.48333 22.7628,46.09134 17.0666,37.1049 21.46752,44.75116 25.78317,44.79636 35.79623,0.37496 46.33795,50.40759 14.08735,66.86062 -31.80711,16.22678 -62.57127,-12.75341 -48.72282,-45.89746 1.97805,-4.73408 5.04957,-8.64532 6.82564,-8.69165 4.42497,-0.11537 23.87837,-9.65453 19.90329,-9.75975 -1.75024,-0.0464 -7.0459,1.5301 -11.76809,3.50319 l -8.58585,3.58738 -18.18406,-36.47451 c -10.00123,-20.06097 -20.0542,-41.22142 -22.33994,-47.0232 -3.16815,-8.04165 -5.4879,-10.55773 -9.76055,-10.58671 -3.0826,-0.0199 -7.18718,-1.03968 -9.12133,-2.26393 -2.52734,-1.59973 -7.41493,1.16397 -17.37432,9.82432 -7.62173,6.62762 -16.37852,14.06869 -19.45954,16.5357 -5.10446,4.08721 -5.35793,5.35397 -2.85483,14.2678 8.80816,31.36683 -14.49508,54.54964 -46.0319,45.79402 -41.10326,-11.41158 -32.71134,-72.45825 9.81172,-71.37495 l 12.41023,0.31614 -14.34282,1.83625 c -40.06421,5.12921 -44.59337,56.06851 -5.94728,66.88873 28.85951,8.08019 49.68012,-14.93135 41.01308,-45.32888 -4.64206,-16.28086 -16.45144,-25.56809 -20.32018,-15.98032 -0.68856,1.70642 -1.32493,1.98565 -1.41416,0.62053 -0.0894,-1.36514 10.43334,-11.78637 23.38349,-23.15835 23.4503,-20.59248 23.54573,-20.72342 23.54573,-32.31094 0,-8.23683 1.76459,-14.23149 6.04221,-20.52653 5.81302,-8.55466 5.90784,-9.35307 2.50003,-21.05304 -1.94819,-6.68865 -5.54584,-24.11885 -7.99477,-38.73374 -4.28596,-25.57801 -4.77435,-26.78912 -13.04874,-32.35921 -4.72786,-3.18268 -10.82997,-9.23023 -13.56023,-13.43907 l -4.96407,-7.65237 -35.90131,-1.10777 -35.9013,-1.10783 -9.01174,9.4733 c -26.97865,28.36048 -72.3286,-8.79965 -50.81299,-41.6366 13.26915,-20.25131 44.20527,-20.19278 56.182,0.10615 l 5.19733,8.80884 h 34.30107 34.30104 l 5.10787,-8.26474 c 2.80936,-4.5456 9.0105,-10.36642 13.78035,-12.93513 9.23741,-4.97471 8.76318,-3.52871 12.58326,-38.36925 0.82325,-7.50819 3.21524,-20.52868 5.31554,-28.93443 3.7394,-14.96555 3.701,-15.44243 -1.84692,-22.9464 -3.3378,-4.51461 -5.86499,-11.77311 -6.1508,-17.66609 -0.44257,-9.12605 -2.34665,-11.74454 -21.72247,-29.87272 l -21.23735,-19.86984 -11.07051,2.78756 c -41.39985,10.42461 -62.15024,-50.58982 -23.94557,-70.40953 27.42235,-14.22608 56.63658,5.4146 54.07103,36.35182 l -1.16786,14.08279 13.85695,13.10843 c 31.93752,30.21237 32.54843,30.07876 52.07193,-11.38765 26.5964,-56.48865 33.05638,-65.12415 42.70498,-57.0869 6.82479,5.68506 27.77521,-0.34252 36.76052,-10.57623 25.35728,-28.88034 -5.66778,-69.23849 -39.34298,-51.17828 -16.71217,8.96283 -23.05127,37.10926 -11.28573,50.11002 2.46589,2.72479 3.80588,5.63173 2.97772,6.45989 -0.82814,0.82816 -3.79558,-2.25021 -6.59428,-6.84083 -21.50013,-35.26578 24.52563,-75.58096 54.13282,-47.41633 21.94683,20.87754 12.67277,56.22963 -16.17047,61.64065 -8.76388,1.64412 -9.26217,2.40926 -30.93764,47.50556 l -22.03031,45.83457 4.88401,6.20898 c 5.96181,7.57919 8.80689,21.17895 5.62147,26.87098 -2.60307,4.65143 24.73858,32.14103 85.84739,86.31191 10.47879,9.2891 10.59883,9.57732 7.67573,18.43441 -5.09203,15.429 -3.16184,43.26437 3.37135,48.61842 l 5.50345,4.51018 -5.5846,-2.73597 c -4.85831,-2.38013 -5.58462,-2.07901 -5.58462,2.31548 0,2.77828 1.18284,5.05142 2.62854,5.05142 1.4457,0 1.78975,-1.39616 0.76457,-3.10257 -1.26654,-2.10814 -0.51796,-2.01073 2.33556,0.3039 2.30975,1.87364 4.19953,5.36686 4.19953,7.76281 0,2.39595 1.68608,5.75559 3.74684,7.46586 27.16667,22.54633 80.0011,118.02493 89.61866,161.95239 27.34346,124.88905 -78.04495,227.60699 -210.6243,205.28715 z m 74.56675,-75.38298 c 29.98408,-15.60071 25.85409,-56.01234 -6.32838,-61.9225 -6.87797,-1.2631 -8.06664,-0.75905 -8.06664,3.42064 0,5.25215 -4.90465,6.99911 -5.05206,1.79948 -0.0484,-1.7064 -1.44451,-0.75327 -3.10255,2.11805 -1.65803,2.87133 -4.3084,4.767 -5.88971,4.21256 -1.58131,-0.55442 -3.60181,0.16779 -4.49007,1.60501 -2.29199,3.70852 -6.9055,3.25757 -5.00749,-0.48947 0.86439,-1.70641 -0.1725,-0.9539 -2.30397,1.67223 -20.18558,24.86916 11.61815,62.47641 40.24087,47.584 z M 595.56669,577.43487 645.35176,529.4494 v -14.15119 -14.1512 l -14.03383,-11.79937 c -7.71863,-6.48966 -31.75124,-28.78962 -53.40584,-49.55543 -50.0041,-47.9518 -52.97004,-47.1332 -58.24139,16.07464 l -1.59177,19.08686 10.21279,11.60233 c 16.38314,18.61227 15.74314,39.88289 -1.70291,56.59726 -12.19392,11.68252 3.75958,87.81939 17.37504,82.92104 0.9998,-0.35967 24.22106,-22.24745 51.60284,-48.63947 z m 60.43243,-30.19895 c -0.71399,-2.73027 -2.28481,-4.9641 -3.49071,-4.9641 -2.59489,0 -2.68539,0.79176 -0.68597,6.00211 2.18689,5.69897 5.7095,4.82351 4.17668,-1.03801 z m -275.38903,-11.0598 c 16.94856,-12.84333 20.18159,-27.84103 9.25368,-42.92661 -21.39392,-29.53345 -66.07367,-8.81417 -54.78082,25.40342 5.83128,17.66903 32.02851,27.75221 45.52714,17.52319 z m 81.00733,-223.42667 c 27.49688,-29.26908 -11.65574,-75.21221 -46.5365,-54.60762 -17.10128,10.10195 -20.87087,56.85571 -4.70064,58.30115 0.22986,0.0199 4.62488,1.50237 9.76653,3.29296 12.29072,4.28031 34.38243,0.55857 41.47061,-6.98649 z"
           id="path285" />
        <path
           style="fill:#327b82;stroke-width:2.48205"
           d="M 526.97268,965.65941 C 242.71214,911.50719 123.36045,444.09278 327.86482,185.89758 453.18266,27.678626 674.21798,14.471827 768.0969,159.59381 c 51.40067,79.4573 40.95891,174.4214 -29.81859,271.18894 -49.78415,68.06532 -49.93812,77.86428 -2.33492,148.60881 137.57219,204.45012 16.02093,429.12924 -208.97071,386.26785 z M 632.94152,959.2731 C 797.54052,916.78369 844.35271,744.52318 735.20465,582.96299 684.1731,507.42647 684.43471,498.91801 740.09091,424.0439 946.77152,145.99698 555.15738,-88.143414 334.52254,181.56047 88.861998,481.85578 304.57834,1044.0363 632.94152,959.2731 Z"
           id="path283" />
      </g>
      <text
         xml:space="preserve"
         style="font-size:291.831px;line-height:0.8;letter-spacing:0px;word-spacing:0px;fill:#489c9e;fill-opacity:1;stroke-width:0.875494"
         x="563.58337"
         y="506.30664"
         id="text529"><tspan
           sodipodi:role="line"
           id="tspan527"
           x="563.58337"
           y="506.30664"
           style="font-style:normal;font-variant:normal;font-weight:bold;font-stretch:normal;font-size:291.831px;font-family:sans-serif;-inkscape-font-specification:'sans-serif Bold';writing-mode:lr-tb;direction:ltr;baseline-shift:baseline;fill:#489c9e;fill-opacity:1;stroke-width:0.875494"
           dy="0"
           dx="0">K</tspan><tspan
           sodipodi:role="line"
           x="563.58337"
           y="739.77142"
           id="tspan587"
           style="font-style:normal;font-variant:normal;font-weight:bold;font-stretch:normal;font-size:291.831px;font-family:sans-serif;-inkscape-font-specification:'sans-serif Bold';writing-mode:lr-tb;direction:ltr;baseline-shift:baseline;fill:#489c9e;fill-opacity:1;stroke-width:0.875494">G</tspan></text>
    </g>
  </g>
</svg>
